<mxfile host="app.diagrams.net" agent="Mozilla/5.0 (Windows NT 10.0; Win64; x64) AppleWebKit/537.36 (KHTML, like Gecko) Chrome/137.0.0.0 Safari/537.36" version="27.1.5">
  <diagram name="Page-1" id="gGd4BrQ4jMrzpHuKk4vW">
    <mxGraphModel dx="761" dy="664" grid="1" gridSize="10" guides="1" tooltips="1" connect="1" arrows="1" fold="1" page="1" pageScale="1" pageWidth="827" pageHeight="1169" math="0" shadow="0">
      <root>
        <mxCell id="0" />
        <mxCell id="1" parent="0" />
        <mxCell id="yL4ZkjfKu7fN3bC5CEjG-1" value="" style="ellipse;html=1;shape=startState;fillColor=#000000;strokeColor=#ff0000;rounded=1;shadow=0;comic=0;labelBackgroundColor=none;fontFamily=Helvetica;fontSize=12;fontColor=#000000;align=center;direction=south;" vertex="1" parent="1">
          <mxGeometry x="150" y="315" width="30" height="30" as="geometry" />
        </mxCell>
        <mxCell id="yL4ZkjfKu7fN3bC5CEjG-2" value="Hiển thị thông tin sản phẩm&amp;nbsp;" style="rounded=1;whiteSpace=wrap;html=1;arcSize=24;fillColor=#FFFF33;strokeColor=#1A1A1A;shadow=0;comic=0;labelBackgroundColor=none;fontFamily=Helvetica;fontSize=12;fontColor=#000000;align=center;" vertex="1" parent="1">
          <mxGeometry x="320" y="300" width="100" height="60" as="geometry" />
        </mxCell>
        <mxCell id="yL4ZkjfKu7fN3bC5CEjG-28" value="Khách hàng chọn&amp;nbsp;&lt;div&gt;mua hàng&lt;/div&gt;" style="edgeStyle=orthogonalEdgeStyle;shape=connector;rounded=1;orthogonalLoop=1;jettySize=auto;html=1;exitX=1;exitY=0.5;exitDx=0;exitDy=0;entryX=0;entryY=0.5;entryDx=0;entryDy=0;strokeColor=#000000;align=center;verticalAlign=middle;fontFamily=Helvetica;fontSize=12;fontColor=default;labelBackgroundColor=none;endArrow=open;endSize=8;fillColor=#000000;" edge="1" parent="1" source="yL4ZkjfKu7fN3bC5CEjG-7" target="yL4ZkjfKu7fN3bC5CEjG-24">
          <mxGeometry y="20" relative="1" as="geometry">
            <mxPoint as="offset" />
          </mxGeometry>
        </mxCell>
        <mxCell id="yL4ZkjfKu7fN3bC5CEjG-30" value="Tìm kiếm sản phẩm" style="edgeStyle=orthogonalEdgeStyle;shape=connector;rounded=1;orthogonalLoop=1;jettySize=auto;html=1;exitX=0.5;exitY=1;exitDx=0;exitDy=0;entryX=0.5;entryY=1;entryDx=0;entryDy=0;strokeColor=#000000;align=center;verticalAlign=middle;fontFamily=Helvetica;fontSize=12;fontColor=default;labelBackgroundColor=none;endArrow=open;endSize=8;fillColor=#000000;elbow=vertical;" edge="1" parent="1" source="yL4ZkjfKu7fN3bC5CEjG-7" target="yL4ZkjfKu7fN3bC5CEjG-2">
          <mxGeometry x="0.037" y="10" relative="1" as="geometry">
            <Array as="points">
              <mxPoint x="600" y="400" />
              <mxPoint x="370" y="400" />
            </Array>
            <mxPoint as="offset" />
          </mxGeometry>
        </mxCell>
        <mxCell id="yL4ZkjfKu7fN3bC5CEjG-7" value="Hiển thị giỏi hàng" style="rounded=1;whiteSpace=wrap;html=1;arcSize=24;fillColor=#FFFF33;strokeColor=#1A1A1A;shadow=0;comic=0;labelBackgroundColor=none;fontFamily=Helvetica;fontSize=12;fontColor=#000000;align=center;" vertex="1" parent="1">
          <mxGeometry x="540" y="300" width="120" height="60" as="geometry" />
        </mxCell>
        <mxCell id="yL4ZkjfKu7fN3bC5CEjG-8" value="Khách hàng tìm kiếm&lt;div&gt;sản phẩm&lt;/div&gt;" style="edgeStyle=orthogonalEdgeStyle;html=1;labelBackgroundColor=none;endArrow=open;endSize=8;strokeColor=light-dark(#000000,#FF9090);fontFamily=Helvetica;fontSize=12;align=center;" edge="1" parent="1" source="yL4ZkjfKu7fN3bC5CEjG-1" target="yL4ZkjfKu7fN3bC5CEjG-2">
          <mxGeometry y="20" relative="1" as="geometry">
            <mxPoint as="offset" />
          </mxGeometry>
        </mxCell>
        <mxCell id="yL4ZkjfKu7fN3bC5CEjG-10" value="Thêm sản phẩm&lt;div&gt;vào giỏi hàng&lt;/div&gt;" style="html=1;labelBackgroundColor=none;endArrow=open;endSize=8;strokeColor=#000000;fontFamily=Helvetica;fontSize=12;align=left;entryX=0;entryY=0.5;exitX=1;exitY=0.5;exitDx=0;exitDy=0;edgeStyle=orthogonalEdgeStyle;fillColor=#000000;" edge="1" parent="1" source="yL4ZkjfKu7fN3bC5CEjG-2" target="yL4ZkjfKu7fN3bC5CEjG-7">
          <mxGeometry x="-0.8462" y="20" relative="1" as="geometry">
            <mxPoint as="offset" />
          </mxGeometry>
        </mxCell>
        <mxCell id="yL4ZkjfKu7fN3bC5CEjG-27" value="Khách hàng điền&lt;div&gt;&amp;nbsp;thông tin đơn hàng&lt;/div&gt;" style="edgeStyle=orthogonalEdgeStyle;rounded=0;orthogonalLoop=1;jettySize=auto;html=1;exitX=1;exitY=0.5;exitDx=0;exitDy=0;" edge="1" parent="1" source="yL4ZkjfKu7fN3bC5CEjG-24" target="yL4ZkjfKu7fN3bC5CEjG-26">
          <mxGeometry x="-0.0667" y="20" relative="1" as="geometry">
            <mxPoint as="offset" />
          </mxGeometry>
        </mxCell>
        <mxCell id="yL4ZkjfKu7fN3bC5CEjG-24" value="Tạo đơn&amp;nbsp;" style="rounded=1;whiteSpace=wrap;html=1;arcSize=24;fillColor=#FFFF33;strokeColor=#1A1A1A;shadow=0;comic=0;labelBackgroundColor=none;fontFamily=Helvetica;fontSize=12;fontColor=#000000;align=center;" vertex="1" parent="1">
          <mxGeometry x="800" y="300" width="120" height="60" as="geometry" />
        </mxCell>
        <mxCell id="yL4ZkjfKu7fN3bC5CEjG-26" value="" style="ellipse;html=1;shape=endState;fillColor=#000000;strokeColor=#ff0000;" vertex="1" parent="1">
          <mxGeometry x="1070" y="315" width="30" height="30" as="geometry" />
        </mxCell>
      </root>
    </mxGraphModel>
  </diagram>
</mxfile>
